<svg width="22" height="22" viewBox="0 0 22 22" fill="none" xmlns="http://www.w3.org/2000/svg">
<path d="M11 22C17.0751 22 22 17.0751 22 11C22 4.92487 17.0751 0 11 0C4.92487 0 0 4.92487 0 11C0 17.0751 4.92487 22 11 22Z" fill="url(#paint0_linear)"/>
<path d="M7.3886 8.30675C7.29056 8.19455 7.16983 8.13831 7.02615 8.13831H4.08804C4.06195 8.13831 4.04059 8.13006 4.02452 8.11356C4.00817 8.09729 4 8.07891 4 8.0592V6.07915C4 6.0594 4.00817 6.0413 4.02452 6.0248C4.04059 6.00825 4.06195 6 4.08804 6H7.19275C7.97618 6 8.65208 6.32028 9.22014 6.9603L9.97428 7.88091L8.50523 9.67285L7.3886 8.30675ZM12.8146 6.95045C13.3827 6.3168 14.0617 6 14.8517 6H17.9467C17.9728 6 17.9923 6.00665 18.0055 6.01971C18.0184 6.03305 18.025 6.05275 18.025 6.07915V8.0592C18.025 8.07891 18.0184 8.09729 18.0055 8.11356C17.9923 8.13006 17.9728 8.13831 17.9467 8.13831H15.0086C14.8649 8.13831 14.7442 8.19455 14.6461 8.30675L12.4817 10.9401L14.6559 13.5933C14.754 13.699 14.8713 13.7518 15.0086 13.7518H17.9467C17.9728 13.7518 17.9923 13.7601 18.0055 13.7766C18.0184 13.7931 18.025 13.8147 18.025 13.8408V15.8208C18.025 15.8406 18.0184 15.859 18.0055 15.8752C17.9923 15.8918 17.9728 15.9 17.9467 15.9H14.8517C14.0617 15.9 13.3858 15.58 12.8244 14.9397L11.0224 12.7419L9.22014 14.9397C8.65208 15.58 7.97302 15.9 7.18299 15.9H4.08804C4.06195 15.9 4.04218 15.8918 4.02926 15.8752C4.01608 15.8587 4.00975 15.8374 4.00975 15.8107V13.8307C4.00975 13.811 4.01608 13.7929 4.02926 13.7763C4.04218 13.7598 4.06195 13.7516 4.08804 13.7516H7.02615C7.16323 13.7516 7.28396 13.6956 7.3886 13.5831L9.5138 10.9894L12.8146 6.95045Z" fill="#00D1FF"/>
<defs>
<linearGradient id="paint0_linear" x1="11" y1="0" x2="11" y2="32.1667" gradientUnits="userSpaceOnUse">
<stop stop-color="#08021E"/>
<stop offset="1" stop-color="#1F0777"/>
</linearGradient>
</defs>
</svg>
