<svg width="22" height="22" viewBox="0 0 22 22" fill="none" xmlns="http://www.w3.org/2000/svg">
<path d="M11 22C17.0751 22 22 17.0751 22 11C22 4.92487 17.0751 0 11 0C4.92487 0 0 4.92487 0 11C0 17.0751 4.92487 22 11 22Z" fill="url(#paint0_linear)"/>
<mask id="mask0" mask-type="alpha" maskUnits="userSpaceOnUse" x="0" y="0" width="22" height="22">
<path d="M11 22C17.0751 22 22 17.0751 22 11C22 4.92487 17.0751 0 11 0C4.92487 0 0 4.92487 0 11C0 17.0751 4.92487 22 11 22Z" fill="url(#paint1_linear)"/>
</mask>
<g mask="url(#mask0)">
<path d="M7.3759 8.26378C7.27786 8.15158 7.15714 8.09534 7.01345 8.09534H4.07535C4.04925 8.09534 4.0279 8.08709 4.01182 8.07059C3.99548 8.05432 3.9873 8.03594 3.9873 8.01623V6.03619C3.9873 6.01643 3.99548 5.99833 4.01182 5.98183C4.0279 5.96528 4.04925 5.95703 4.07535 5.95703H7.18005C7.96348 5.95703 8.63939 6.27731 9.20745 6.91733L9.96159 7.83794L8.49254 9.62988L7.3759 8.26378ZM12.8019 6.90748C13.37 6.27383 14.0491 5.95703 14.839 5.95703H17.934C17.9601 5.95703 17.9796 5.96368 17.9928 5.97674C18.0057 5.99008 18.0123 6.00979 18.0123 6.03619V8.01623C18.0123 8.03594 18.0057 8.05432 17.9928 8.07059C17.9796 8.08709 17.9601 8.09534 17.934 8.09534H14.9959C14.8522 8.09534 14.7315 8.15158 14.6334 8.26378L12.469 10.8972L14.6432 13.5503C14.7413 13.6561 14.8586 13.7088 14.9959 13.7088H17.934C17.9601 13.7088 17.9796 13.7171 17.9928 13.7336C18.0057 13.7502 18.0123 13.7717 18.0123 13.7978V15.7779C18.0123 15.7976 18.0057 15.816 17.9928 15.8322C17.9796 15.8488 17.9601 15.857 17.934 15.857H14.839C14.0491 15.857 13.3731 15.537 12.8117 14.8967L11.0097 12.699L9.20745 14.8967C8.63939 15.537 7.96032 15.857 7.17029 15.857H4.07535C4.04925 15.857 4.02948 15.8488 4.01656 15.8322C4.00338 15.8157 3.99706 15.7944 3.99706 15.7677V13.7877C3.99706 13.768 4.00338 13.7499 4.01656 13.7333C4.02948 13.7168 4.04925 13.7086 4.07535 13.7086H7.01345C7.15054 13.7086 7.27126 13.6526 7.3759 13.5402L9.5011 10.9464L12.8019 6.90748Z" fill="#00D1FF"/>
</g>
<defs>
<linearGradient id="paint0_linear" x1="11" y1="0" x2="11" y2="32.1667" gradientUnits="userSpaceOnUse">
<stop stop-color="#08021E"/>
<stop offset="1" stop-color="#1F0777"/>
</linearGradient>
<linearGradient id="paint1_linear" x1="11" y1="0" x2="11" y2="32.1667" gradientUnits="userSpaceOnUse">
<stop stop-color="#08021E"/>
<stop offset="1" stop-color="#1F0777"/>
</linearGradient>
</defs>
</svg>
