<svg width="180" height="15" viewBox="0 0 180 15" fill="none" xmlns="http://www.w3.org/2000/svg">
<g clip-path="url(#clip0)">
<path d="M17.3603 7.15306C16.5931 6.40329 15.6713 6.02865 14.5942 6.02865H3.91654C3.71811 6.02865 3.54803 5.95967 3.40583 5.82148C3.33703 5.75702 3.28251 5.67886 3.24577 5.59203C3.20903 5.50521 3.19089 5.41165 3.19252 5.31739V4.4514C3.19252 4.26219 3.26339 4.09825 3.40583 3.96007C3.47282 3.89322 3.55253 3.84047 3.64024 3.80493C3.72796 3.76939 3.8219 3.75178 3.91654 3.75314H17.6835C17.6989 3.75374 17.7143 3.75119 17.7287 3.74562C17.7432 3.74005 17.7563 3.7316 17.7673 3.72077C17.7773 3.71179 17.7853 3.70087 17.7908 3.68869C17.7964 3.6765 17.7994 3.6633 17.7997 3.64991V1.06447C17.7997 1.03022 17.7888 1.00447 17.7673 0.986995C17.7431 0.969089 17.7135 0.960003 17.6835 0.961247H3.91654C2.8311 0.961247 1.90677 1.33636 1.14425 2.08613C0.38126 2.83566 0 3.74038 0 4.8003V4.96849C0 6.03715 0.38126 6.94636 1.14402 7.69613C1.90654 8.44589 2.83087 8.82054 3.91677 8.82054H14.5939C14.7836 8.82054 14.9494 8.88715 15.0914 9.02085C15.2339 9.15455 15.3047 9.32038 15.3047 9.51881V10.3846C15.3047 10.583 15.2339 10.7488 15.0914 10.8825C14.9492 11.0162 14.7834 11.0828 14.5939 11.0828H0.814488C0.801094 11.0831 0.787898 11.0861 0.775711 11.0917C0.763524 11.0972 0.752604 11.1052 0.743622 11.1152C0.732729 11.1263 0.724219 11.1395 0.718613 11.154C0.713007 11.1685 0.710425 11.184 0.711024 11.1995V13.7847C0.711024 13.8107 0.72189 13.8343 0.743386 13.8556C0.752365 13.8655 0.76328 13.8736 0.775463 13.8792C0.787647 13.8848 0.800845 13.8878 0.814252 13.8882H14.5939C15.6711 13.8882 16.5931 13.5114 17.3601 12.7572C18.1271 12.0031 18.5107 11.0961 18.5107 10.0359V9.8677C18.5105 8.80755 18.1271 7.90259 17.3603 7.15306V7.15306ZM40.5406 0.961247H37.5546C37.5286 0.961304 37.5035 0.970409 37.4835 0.986995C37.462 1.00447 37.4511 1.03022 37.4511 1.06447V4.34794C37.4511 4.63211 37.3044 4.84778 37.0117 4.99424L31.0528 7.46274L25.0939 4.99424C24.801 4.84778 24.6543 4.63235 24.6543 4.3477V1.06447C24.6543 1.03022 24.6458 1.00447 24.6286 0.986995C24.6109 0.969987 24.5851 0.961247 24.5509 0.961247H21.5646C21.5387 0.961339 21.5136 0.970443 21.4937 0.986995C21.4722 1.00447 21.4613 1.03022 21.4613 1.06447V4.82605C21.4613 5.3866 21.6165 5.8992 21.9267 6.36432C22.2371 6.82967 22.659 7.17408 23.1935 7.39825L29.4501 10.0222V13.771C29.4494 13.7865 29.4519 13.802 29.4575 13.8165C29.4631 13.831 29.4716 13.8443 29.4824 13.8553C29.4935 13.8662 29.5066 13.8746 29.521 13.8802C29.5354 13.8858 29.5509 13.8883 29.5663 13.8877H32.5524C32.5658 13.8874 32.5789 13.8844 32.5911 13.8788C32.6033 13.8733 32.6142 13.8653 32.6232 13.8553C32.6341 13.8443 32.6425 13.8311 32.6481 13.8166C32.6536 13.8022 32.6562 13.7867 32.6556 13.7712V10.0224L38.9121 7.41148C39.446 7.17857 39.8688 6.8318 40.1787 6.37093C40.4891 5.90983 40.6439 5.39959 40.6439 4.83904V1.06447C40.6439 1.03022 40.6332 1.00447 40.6115 0.986995C40.5916 0.97046 40.5665 0.961359 40.5406 0.961247V0.961247ZM62.7203 0.961247H59.7343C59.6998 0.961247 59.6738 0.972113 59.6565 0.993609C59.64 1.0135 59.6308 1.03857 59.6308 1.06447V11.0953H58.3769C58.1443 11.0953 57.9461 10.9921 57.7824 10.7852L51.9917 2.31833C51.3709 1.44833 50.5134 0.995499 49.4192 0.961247H44.4298C44.4143 0.960621 44.3988 0.96317 44.3844 0.968735C44.3699 0.9743 44.3567 0.982765 44.3457 0.993609C44.3357 1.00258 44.3277 1.0135 44.3221 1.02569C44.3166 1.03788 44.3136 1.05108 44.3133 1.06447V13.784C44.3133 13.81 44.3239 13.8336 44.3457 13.8549C44.3567 13.8658 44.3699 13.8743 44.3843 13.8799C44.3988 13.8855 44.4143 13.8881 44.4298 13.8875H47.4158C47.4293 13.8872 47.4425 13.8841 47.4547 13.8786C47.4669 13.873 47.4779 13.865 47.4869 13.8551C47.4969 13.8461 47.5048 13.8352 47.5104 13.823C47.516 13.8108 47.519 13.7976 47.5193 13.7842V3.7529H48.7732C49.0058 3.7529 49.2038 3.86085 49.3677 4.07605L55.1587 12.5429C55.7792 13.4134 56.6365 13.8615 57.7309 13.887H62.7206C62.755 13.887 62.7808 13.8764 62.7983 13.8549C62.8148 13.8349 62.8239 13.8099 62.824 13.784V1.06424C62.8238 1.03836 62.8148 1.01333 62.7983 0.993373C62.7806 0.971876 62.7548 0.96101 62.7203 0.96101V0.961247ZM84.3028 0.961247H66.0118C65.9776 0.961247 65.9513 0.972113 65.9343 0.993609C65.9176 1.01344 65.9085 1.03855 65.9086 1.06447V3.64991C65.9086 3.67566 65.9169 3.69951 65.9343 3.72077C65.9513 3.74251 65.9776 3.75314 66.0118 3.75314H73.5607V13.784C73.5607 13.81 73.5692 13.8336 73.5865 13.8549C73.6037 13.8766 73.6297 13.8875 73.6642 13.8875H76.6502C76.6847 13.8875 76.7105 13.8766 76.7277 13.8551C76.7444 13.8352 76.7535 13.8102 76.7535 13.7842V3.7529H84.3024C84.3178 3.75352 84.3332 3.75097 84.3476 3.7454C84.3621 3.73984 84.3752 3.73137 84.3862 3.72054C84.3962 3.71156 84.4042 3.70065 84.4097 3.68846C84.4153 3.67627 84.4183 3.66307 84.4186 3.64967V1.06447C84.4183 1.05108 84.4153 1.03788 84.4097 1.02569C84.4042 1.0135 84.3962 1.00258 84.3862 0.993609C84.3753 0.982727 84.3623 0.97423 84.3479 0.968659C84.3336 0.963087 84.3182 0.960563 84.3028 0.961247V0.961247ZM106.482 0.961247H103.496C103.483 0.961507 103.47 0.964512 103.457 0.970078C103.445 0.975643 103.434 0.983651 103.425 0.993609C103.415 1.00263 103.407 1.01355 103.402 1.02573C103.396 1.03791 103.393 1.05109 103.393 1.06447V6.02818H91.2935V1.06447C91.2933 1.05108 91.2903 1.03788 91.2847 1.02569C91.2791 1.0135 91.2711 1.00258 91.2612 0.993609C91.2501 0.982869 91.237 0.974468 91.2227 0.968907C91.2083 0.963346 91.193 0.960741 91.1776 0.961247H88.1913C88.1779 0.961511 88.1647 0.96452 88.1525 0.970086C88.1403 0.975652 88.1294 0.983658 88.1204 0.993609C88.1105 1.00263 88.1025 1.01355 88.097 1.02573C88.0914 1.03791 88.0884 1.05109 88.088 1.06447V13.784C88.088 13.81 88.0989 13.8336 88.1204 13.8549C88.1294 13.8649 88.1403 13.8729 88.1525 13.8785C88.1646 13.8841 88.1778 13.8872 88.1913 13.8875H91.1776C91.193 13.8881 91.2083 13.8855 91.2227 13.8799C91.2371 13.8744 91.2502 13.8659 91.2612 13.8551C91.2711 13.8461 91.2791 13.8352 91.2847 13.823C91.2903 13.8108 91.2933 13.7976 91.2935 13.7842V8.8203H103.393V13.7838C103.393 13.8098 103.404 13.8334 103.425 13.8546C103.434 13.8646 103.445 13.8726 103.457 13.8783C103.47 13.8839 103.483 13.8869 103.496 13.8872H106.482C106.498 13.8878 106.513 13.8852 106.528 13.8797C106.542 13.8741 106.555 13.8657 106.566 13.8549C106.576 13.8459 106.584 13.8349 106.59 13.8227C106.595 13.8106 106.598 13.7974 106.599 13.784V1.06424C106.598 1.05087 106.595 1.03772 106.589 1.02556C106.584 1.01339 106.576 1.00245 106.566 0.993373C106.555 0.982592 106.542 0.974167 106.528 0.968605C106.513 0.963042 106.498 0.960459 106.482 0.96101V0.961247ZM128.583 0.961247H114.092C113.015 0.961247 112.093 1.33589 111.326 2.08566C110.559 2.83542 110.176 3.74038 110.176 4.8003V10.0354C110.176 11.1041 110.559 12.0133 111.326 12.7631C112.093 13.5126 113.015 13.8877 114.092 13.8877H128.583C128.596 13.8874 128.609 13.8844 128.621 13.8788C128.634 13.8733 128.645 13.8653 128.654 13.8553C128.664 13.8463 128.672 13.8354 128.677 13.8232C128.683 13.811 128.686 13.7979 128.686 13.7845V11.199C128.686 11.1646 128.675 11.1388 128.654 11.1216C128.634 11.105 128.609 11.0958 128.583 11.0956H114.092C113.894 11.0956 113.726 11.0271 113.588 10.8891C113.45 10.7514 113.381 10.5875 113.381 10.3978V8.82054H128.573C128.608 8.82054 128.633 8.80967 128.651 8.78818C128.667 8.76822 128.676 8.74319 128.677 8.71731V6.13164C128.677 6.09715 128.668 6.0714 128.651 6.05392C128.633 6.03692 128.608 6.02818 128.573 6.02818H113.381V4.45117C113.381 4.26148 113.45 4.09802 113.588 3.95983C113.726 3.82211 113.894 3.7529 114.092 3.7529H128.583C128.596 3.7526 128.609 3.74957 128.621 3.74401C128.634 3.73845 128.645 3.73046 128.654 3.72054C128.664 3.71152 128.672 3.70059 128.677 3.68841C128.683 3.67624 128.686 3.66306 128.686 3.64967V1.06447C128.686 1.05109 128.683 1.03791 128.677 1.02573C128.672 1.01355 128.664 1.00263 128.654 0.993609C128.645 0.983747 128.634 0.975804 128.621 0.970246C128.609 0.964689 128.596 0.961629 128.583 0.961247V0.961247ZM150.657 0.961247H132.366C132.332 0.961247 132.306 0.972113 132.289 0.993609C132.272 1.01344 132.263 1.03855 132.263 1.06447V3.64991C132.263 3.67566 132.271 3.69951 132.289 3.72077C132.306 3.74251 132.332 3.75314 132.366 3.75314H139.915V13.784C139.915 13.81 139.924 13.8336 139.941 13.8549C139.959 13.8766 139.984 13.8875 140.019 13.8875H143.005C143.039 13.8875 143.065 13.8766 143.082 13.8551C143.099 13.8353 143.108 13.8102 143.108 13.7842V3.7529H150.657C150.672 3.75352 150.688 3.75097 150.702 3.7454C150.717 3.73984 150.73 3.73137 150.741 3.72054C150.751 3.71152 150.759 3.70059 150.764 3.68841C150.77 3.67624 150.773 3.66306 150.773 3.64967V1.06447C150.773 1.05109 150.77 1.03791 150.764 1.02573C150.759 1.01355 150.751 1.00263 150.741 0.993609C150.73 0.982797 150.717 0.974346 150.702 0.968779C150.688 0.963213 150.673 0.960649 150.657 0.961247V0.961247ZM157.61 0.986995C157.592 0.969987 157.566 0.961247 157.532 0.961247H154.546C154.512 0.961247 154.485 0.969987 154.468 0.986995C154.451 1.00447 154.443 1.03022 154.443 1.06447V13.784C154.443 13.81 154.451 13.8336 154.468 13.8549C154.485 13.8766 154.512 13.8875 154.546 13.8875H157.532C157.566 13.8875 157.592 13.8766 157.61 13.8551C157.626 13.8352 157.635 13.8101 157.635 13.7842V1.06424C157.635 1.03022 157.627 1.00424 157.61 0.986758V0.986995ZM165.854 4.10251C165.724 3.95605 165.565 3.88282 165.375 3.88282H161.498C161.482 3.88344 161.467 3.88086 161.452 3.87526C161.438 3.86965 161.425 3.86113 161.414 3.85022C161.404 3.84127 161.396 3.83035 161.39 3.81816C161.385 3.80597 161.382 3.79276 161.381 3.77936V1.19416C161.381 1.16818 161.392 1.14455 161.414 1.12329C161.425 1.11246 161.438 1.10398 161.452 1.09838C161.467 1.09278 161.482 1.09016 161.498 1.0907H165.595C166.629 1.0907 167.521 1.50881 168.271 2.34455L169.266 3.54668L167.327 5.88621L165.854 4.10274V4.10251ZM173.014 2.3318C173.764 1.50432 174.66 1.0907 175.703 1.0907H179.788C179.822 1.0907 179.848 1.09944 179.866 1.11668C179.883 1.13392 179.891 1.15967 179.891 1.19416V3.77936C179.891 3.8051 179.883 3.82896 179.866 3.85022C179.848 3.87196 179.822 3.88259 179.788 3.88259H175.91C175.721 3.88259 175.561 3.95605 175.432 4.10251L172.575 7.54093L175.445 11.0051C175.574 11.1431 175.729 11.212 175.91 11.212H179.788C179.822 11.212 179.848 11.2229 179.866 11.2444C179.883 11.2659 179.891 11.294 179.891 11.3283V13.9132C179.891 13.9391 179.882 13.9642 179.866 13.9841C179.848 14.0058 179.822 14.0167 179.788 14.0167H175.703C174.661 14.0167 173.769 13.5986 173.028 12.7628L170.649 9.89322L168.271 12.7628C167.521 13.5988 166.625 14.0167 165.582 14.0167H161.498C161.463 14.0167 161.437 14.0058 161.42 13.9843C161.402 13.9601 161.393 13.9302 161.394 13.9V11.315C161.394 11.2891 161.403 11.2641 161.42 11.2442C161.437 11.2224 161.463 11.2118 161.498 11.2118H165.375C165.556 11.2118 165.716 11.1386 165.854 10.9919L168.658 7.60518L173.014 2.3318V2.3318Z" fill="#00D1FF"/>
</g>
<defs>
<clipPath id="clip0">
<rect width="180" height="13.2283" fill="white" transform="translate(0 0.957031)"/>
</clipPath>
</defs>
</svg>
