<svg width="125" height="10" viewBox="0 0 125 10" fill="none" xmlns="http://www.w3.org/2000/svg">
<g clip-path="url(#clip0)">
<path d="M12.0558 4.30399C11.523 3.78332 10.8829 3.52315 10.1348 3.52315H2.71982C2.58202 3.52315 2.46391 3.47525 2.36516 3.37929C2.31739 3.33452 2.27952 3.28024 2.25401 3.21994C2.2285 3.15965 2.2159 3.09468 2.21703 3.02922V2.42784C2.21703 2.29644 2.26624 2.1826 2.36516 2.08663C2.41168 2.04021 2.46703 2.00358 2.52795 1.9789C2.58886 1.95422 2.6541 1.94199 2.71982 1.94293H12.2802C12.2909 1.94335 12.3016 1.94158 12.3116 1.93771C12.3216 1.93385 12.3308 1.92798 12.3384 1.92046C12.3453 1.91422 12.3509 1.90664 12.3547 1.89818C12.3586 1.88971 12.3607 1.88055 12.3609 1.87125V0.0758072C12.3609 0.0520211 12.3533 0.0341405 12.3384 0.0220014C12.3216 0.00956725 12.3011 0.00325743 12.2802 0.00412086H2.71982C1.96604 0.00412086 1.32415 0.26462 0.794619 0.785289C0.264764 1.30579 0 1.93408 0 2.67013V2.78693C0 3.52906 0.264764 4.16045 0.794455 4.68112C1.32398 5.20179 1.96588 5.46196 2.71998 5.46196H10.1347C10.2664 5.46196 10.3816 5.50822 10.4802 5.60107C10.5791 5.69392 10.6283 5.80908 10.6283 5.94687V6.54808C10.6283 6.68588 10.5791 6.80104 10.4802 6.89388C10.3814 6.98673 10.2662 7.03299 10.1347 7.03299H0.565617C0.556315 7.03319 0.547151 7.03528 0.538688 7.03914C0.530225 7.04301 0.522642 7.04856 0.516404 7.05547C0.50884 7.06317 0.50293 7.07234 0.499037 7.08241C0.495144 7.09248 0.493351 7.10324 0.493766 7.11403V8.9093C0.493766 8.92735 0.501312 8.94375 0.51624 8.95852C0.522476 8.96543 0.530055 8.97101 0.538516 8.9749C0.546977 8.97879 0.556142 8.98092 0.565453 8.98115H10.1347C10.8827 8.98115 11.523 8.71951 12.0556 8.19572C12.5883 7.6721 12.8547 7.04218 12.8547 6.30596V6.18916C12.8545 5.45294 12.5883 4.82449 12.0558 4.30399V4.30399ZM28.1532 0.00412086H26.0796C26.0615 0.00416088 26.0441 0.0104834 26.0302 0.0220014C26.0153 0.0341405 26.0077 0.0520211 26.0077 0.0758072V2.35599C26.0077 2.55333 25.9058 2.7031 25.7026 2.80481L21.5645 4.51905L17.4263 2.80481C17.2229 2.7031 17.1211 2.5535 17.1211 2.35583V0.0758072C17.1211 0.0520211 17.1152 0.0341405 17.1032 0.0220014C17.0909 0.0101904 17.073 0.00412086 17.0492 0.00412086H14.9754C14.9574 0.00418527 14.94 0.0105072 14.9262 0.0220014C14.9113 0.0341405 14.9037 0.0520211 14.9037 0.0758072V2.68801C14.9037 3.07728 15.0115 3.43325 15.2269 3.75625C15.4424 4.07942 15.7354 4.31859 16.1066 4.47427L20.4514 6.29644V8.89979C20.451 8.91057 20.4527 8.92133 20.4566 8.93141C20.4605 8.94148 20.4664 8.95065 20.4739 8.95835C20.4816 8.96588 20.4907 8.97176 20.5007 8.97562C20.5107 8.97949 20.5214 8.98126 20.5322 8.98083H22.6058C22.6151 8.98062 22.6243 8.97853 22.6327 8.97466C22.6412 8.9708 22.6488 8.96525 22.655 8.95835C22.6625 8.95066 22.6684 8.94151 22.6723 8.93147C22.6761 8.92143 22.6779 8.91071 22.6775 8.89995V6.29661L27.0223 4.48345C27.393 4.32171 27.6867 4.08089 27.9019 3.76085C28.1175 3.44064 28.2249 3.08631 28.2249 2.69703V0.0758072C28.2249 0.0520211 28.2175 0.0341405 28.2024 0.0220014C28.1886 0.0105192 28.1712 0.00419892 28.1532 0.00412086V0.00412086ZM43.5558 0.00412086H41.4821C41.4582 0.00412086 41.4401 0.0116668 41.4282 0.0265946C41.4166 0.0404107 41.4103 0.0578195 41.4103 0.0758072V7.04169H40.5395C40.378 7.04169 40.2403 6.97 40.1266 6.8263L36.1053 0.946542C35.6742 0.342375 35.0787 0.0279069 34.3189 0.00412086H30.854C30.8433 0.00368667 30.8325 0.0054564 30.8225 0.00932125C30.8124 0.0131861 30.8033 0.0190644 30.7956 0.0265946C30.7887 0.0328261 30.7831 0.0404082 30.7793 0.0488726C30.7754 0.0573369 30.7733 0.0665038 30.7731 0.0758072V8.90881C30.7731 8.92686 30.7805 8.94326 30.7956 8.95803C30.8033 8.96559 30.8124 8.97151 30.8225 8.9754C30.8325 8.97929 30.8432 8.98109 30.854 8.98066H32.9277C32.937 8.98045 32.9462 8.97835 32.9547 8.97449C32.9631 8.97063 32.9708 8.96508 32.977 8.95819C32.9839 8.95195 32.9895 8.94436 32.9933 8.9359C32.9972 8.92744 32.9993 8.91828 32.9995 8.90898V1.94277H33.8702C34.0318 1.94277 34.1693 2.01774 34.2831 2.16718L38.3046 8.04694C38.7356 8.65143 39.3309 8.96262 40.0909 8.98034H43.5559C43.5799 8.98034 43.5978 8.97295 43.6099 8.95803C43.6214 8.94419 43.6277 8.92679 43.6278 8.90881V0.0756432C43.6277 0.05767 43.6214 0.040288 43.6099 0.0264306C43.5976 0.0115028 43.5797 0.00395682 43.5558 0.00395682V0.00412086ZM58.5436 0.00412086H45.8415C45.8178 0.00412086 45.7995 0.0116668 45.7877 0.0265946C45.7761 0.0403681 45.7698 0.0578047 45.7698 0.0758072V1.87125C45.7698 1.88913 45.7756 1.9057 45.7877 1.92046C45.7995 1.93555 45.8178 1.94293 45.8415 1.94293H51.0838V8.90881C51.0838 8.92686 51.0897 8.94326 51.1017 8.95803C51.1137 8.97312 51.1317 8.98066 51.1557 8.98066H53.2293C53.2533 8.98066 53.2712 8.97312 53.2831 8.95819C53.2947 8.94439 53.301 8.92697 53.301 8.90898V1.94277H58.5433C58.554 1.9432 58.5647 1.94143 58.5748 1.93756C58.5848 1.9337 58.5939 1.92782 58.6015 1.9203C58.6085 1.91406 58.614 1.90648 58.6179 1.89802C58.6217 1.88955 58.6238 1.88039 58.624 1.87108V0.0758072C58.6238 0.0665038 58.6217 0.0573369 58.6179 0.0488726C58.614 0.0404082 58.6085 0.0328261 58.6015 0.0265946C58.594 0.0190377 58.5849 0.0131372 58.575 0.00926824C58.565 0.00539925 58.5543 0.00364633 58.5436 0.00412086V0.00412086ZM73.946 0.00412086H71.8724C71.863 0.00430172 71.8539 0.00638875 71.8454 0.0102536C71.8369 0.0141185 71.8293 0.0196795 71.823 0.0265946C71.8161 0.0328567 71.8106 0.0404451 71.8067 0.0489027C71.8029 0.0573604 71.8008 0.0665123 71.8005 0.0758072V3.52282H63.3983V0.0758072C63.3981 0.0665038 63.396 0.0573369 63.3922 0.0488726C63.3883 0.0404082 63.3827 0.0328261 63.3758 0.0265946C63.3681 0.0191365 63.3591 0.0133022 63.3491 0.00944065C63.3391 0.00557916 63.3284 0.00376982 63.3177 0.00412086H61.2439C61.2346 0.00430468 61.2255 0.00639379 61.217 0.0102592C61.2085 0.0141246 61.2009 0.0196842 61.1947 0.0265946C61.1878 0.0328567 61.1823 0.0404451 61.1784 0.0489027C61.1746 0.0573604 61.1725 0.0665123 61.1722 0.0758072V8.90881C61.1722 8.92686 61.1798 8.94326 61.1947 8.95803C61.2009 8.96496 61.2085 8.97054 61.217 8.97444C61.2254 8.97833 61.2346 8.98045 61.2439 8.98066H63.3177C63.3284 8.98108 63.3391 8.9793 63.3491 8.97544C63.3591 8.97157 63.3682 8.9657 63.3758 8.95819C63.3827 8.95196 63.3883 8.94438 63.3922 8.93591C63.396 8.92745 63.3981 8.91828 63.3983 8.90898V5.4618H71.8005V8.90865C71.8005 8.92669 71.8081 8.9431 71.823 8.95786C71.8293 8.96479 71.8369 8.97037 71.8454 8.97426C71.8538 8.97816 71.863 8.98028 71.8724 8.9805H73.946C73.9568 8.9809 73.9674 8.97912 73.9775 8.97525C73.9875 8.97139 73.9966 8.96553 74.0043 8.95803C74.0111 8.95176 74.0167 8.94417 74.0205 8.93572C74.0244 8.92726 74.0265 8.91811 74.0267 8.90881V0.0756432C74.0264 0.0663599 74.0243 0.0572283 74.0204 0.0487796C74.0166 0.0403309 74.0111 0.0327338 74.0043 0.0264306C73.9966 0.0189444 73.9875 0.0130933 73.9774 0.00923068C73.9674 0.00536805 73.9568 0.00357398 73.946 0.00395682V0.00412086ZM89.2935 0.00412086H79.2308C78.4824 0.00412086 77.8424 0.264292 77.3097 0.784961C76.7771 1.30563 76.5108 1.93408 76.5108 2.67013V6.30563C76.5108 7.04776 76.7771 7.67915 77.3097 8.19982C77.8424 8.72033 78.4824 8.98083 79.2308 8.98083H89.2935C89.3028 8.98062 89.312 8.97852 89.3205 8.97465C89.329 8.97079 89.3366 8.96525 89.3428 8.95835C89.3497 8.95207 89.3552 8.94448 89.3591 8.93603C89.3629 8.92757 89.3651 8.91843 89.3653 8.90914V7.1137C89.3653 7.08975 89.3578 7.07187 89.3428 7.0599C89.329 7.04838 89.3115 7.042 89.2935 7.04185H79.2308C79.093 7.04185 78.9764 6.99428 78.8807 6.89848C78.7848 6.80284 78.7369 6.689 78.7369 6.55727V5.46196H89.2871C89.3109 5.46196 89.3287 5.45442 89.3409 5.43949C89.3523 5.42563 89.3586 5.40825 89.3588 5.39028V3.59467C89.3588 3.57072 89.3527 3.55284 89.3409 3.5407C89.3287 3.52889 89.3109 3.52282 89.2871 3.52282H78.7369V2.42768C78.7369 2.29595 78.7848 2.18243 78.8807 2.08647C78.9764 1.99083 79.093 1.94277 79.2308 1.94277H89.2935C89.3028 1.94256 89.312 1.94046 89.3205 1.9366C89.329 1.93273 89.3366 1.92719 89.3428 1.9203C89.3497 1.91403 89.3553 1.90644 89.3591 1.89799C89.363 1.88953 89.3651 1.88038 89.3653 1.87108V0.0758072C89.3651 0.0665123 89.363 0.0573604 89.3591 0.0489027C89.3553 0.0404451 89.3497 0.0328567 89.3428 0.0265946C89.3365 0.0197463 89.3289 0.0142302 89.3204 0.0103707C89.3119 0.00651125 89.3028 0.0043863 89.2935 0.00412086V0.00412086ZM104.623 0.00412086H91.9211C91.8971 0.00412086 91.8791 0.0116668 91.8673 0.0265946C91.8557 0.0403681 91.8494 0.0578047 91.8494 0.0758072V1.87125C91.8494 1.88913 91.8552 1.9057 91.8673 1.92046C91.8791 1.93555 91.8971 1.94293 91.9211 1.94293H97.1634V8.90881C97.1634 8.92686 97.1693 8.94326 97.1813 8.95803C97.1934 8.97312 97.2113 8.98066 97.2352 8.98066H99.3089C99.3328 8.98066 99.3507 8.97312 99.3627 8.95819C99.3743 8.94443 99.3806 8.92698 99.3806 8.90898V1.94277H104.623C104.634 1.9432 104.644 1.94143 104.654 1.93756C104.664 1.9337 104.673 1.92782 104.681 1.9203C104.688 1.91403 104.694 1.90644 104.697 1.89799C104.701 1.88953 104.703 1.88038 104.704 1.87108V0.0758072C104.703 0.0665123 104.701 0.0573604 104.697 0.0489027C104.694 0.0404451 104.688 0.0328567 104.681 0.0265946C104.673 0.0190862 104.664 0.0132176 104.654 0.00935196C104.645 0.00548631 104.634 0.00370589 104.623 0.00412086V0.00412086ZM109.451 0.0220014C109.439 0.0101904 109.421 0.00412086 109.397 0.00412086H107.324C107.3 0.00412086 107.281 0.0101904 107.27 0.0220014C107.258 0.0341405 107.252 0.0520211 107.252 0.0758072V8.90881C107.252 8.92686 107.258 8.94326 107.27 8.95803C107.281 8.97312 107.3 8.98066 107.324 8.98066H109.397C109.421 8.98066 109.439 8.97312 109.451 8.95819C109.463 8.94433 109.469 8.92695 109.469 8.90898V0.0756432C109.469 0.0520211 109.463 0.0339765 109.451 0.0218374V0.0220014ZM115.176 2.18555C115.086 2.08385 114.976 2.03299 114.844 2.03299H112.151C112.14 2.03342 112.13 2.03163 112.12 2.02774C112.11 2.02384 112.1 2.01793 112.093 2.01035C112.086 2.00414 112.08 1.99656 112.076 1.98809C112.073 1.97962 112.071 1.97045 112.07 1.96114V0.165866C112.07 0.147822 112.078 0.131417 112.093 0.116654C112.101 0.10913 112.11 0.103244 112.12 0.0993522C112.13 0.0954606 112.14 0.093645 112.151 0.0940159H114.997C115.715 0.0940159 116.334 0.38437 116.855 0.964751L117.546 1.79956L116.199 3.42423L115.176 2.18572V2.18555ZM120.149 0.955893C120.67 0.381253 121.292 0.0940159 122.016 0.0940159H124.853C124.877 0.0940159 124.895 0.100085 124.907 0.11206C124.918 0.124036 124.925 0.141916 124.925 0.165866V1.96114C124.925 1.97902 124.918 1.99559 124.907 2.01035C124.895 2.02545 124.877 2.03283 124.853 2.03283H122.16C122.028 2.03283 121.917 2.08385 121.828 2.18555L119.844 4.57335L121.837 6.97902C121.927 7.07482 122.034 7.12272 122.16 7.12272H124.853C124.877 7.12272 124.895 7.13027 124.907 7.1452C124.918 7.16013 124.925 7.17965 124.925 7.20343V8.99854C124.925 9.01653 124.918 9.03394 124.907 9.04776C124.895 9.06285 124.877 9.07039 124.853 9.07039H122.016C121.292 9.07039 120.673 8.78004 120.158 8.19966L118.507 6.20688L116.855 8.19966C116.334 8.7802 115.712 9.07039 114.988 9.07039H112.151C112.127 9.07039 112.109 9.06285 112.097 9.04792C112.085 9.03107 112.078 9.01036 112.079 8.98936V7.19425C112.079 7.17626 112.086 7.15885 112.097 7.14503C112.109 7.12994 112.127 7.12256 112.151 7.12256H114.844C114.969 7.12256 115.08 7.07171 115.176 6.96984L117.124 4.61797L120.149 0.955893V0.955893Z" fill="#00D1FF"/>
</g>
<defs>
<clipPath id="clip0">
<rect width="125" height="9.18635" fill="white"/>
</clipPath>
</defs>
</svg>
