<svg width="125" height="15" viewBox="0 0 125 15" fill="none" xmlns="http://www.w3.org/2000/svg">
<path fill-rule="evenodd" clip-rule="evenodd" d="M25.5523 0.23764L20.6187 8.67274V14.4428H18.79V8.67274L13.8564 0.23764H15.886L19.765 7.02972L23.6232 0.23764H25.5523ZM38.491 14.4428H36.2776L30.5103 3.02218V14.4428H28.7433V0.23764H30.9973L36.7447 11.718V0.23764H38.491V14.4428ZM54.0069 1.90058H49.1331V14.4428H47.2846V1.90058H42.3908V0.23764H54.0069V1.89968V1.90058ZM67.9296 14.4428H66.0829V7.89242H59.9707V14.4437H58.1421V0.23764H59.9707V6.16792H66.0829V0.23764H67.9306V14.4428H67.9296ZM82.181 14.4428H72.6577V0.23764H82.181V1.88067H74.4655V6.20775H80.2935V7.89152H74.4655V12.7998H82.1819V14.4428H82.181ZM97.3421 1.90058H92.4682V14.4428H90.6206V1.90058H85.7268V0.23764H97.3421V1.89968V1.90058ZM109.092 14.4428H100.888V12.96H104.076V1.70052H100.888V0.23764H109.092V1.70052H105.904V12.96H109.092V14.4428ZM124.36 14.4428H122.309L118.694 8.67274L115.12 14.4428H113.11L117.679 7.26961L113.111 0.23764H115.183L118.777 5.78681L122.331 0.23764H124.341L119.792 7.26961L124.361 14.4428H124.36Z" fill="#0A0816"/>
<path opacity="0.5" fill-rule="evenodd" clip-rule="evenodd" d="M1.73227 14.269L0.256714 13.2144L9.53823 0.300079L11.0138 1.35469L1.73136 14.269H1.73227Z" fill="#0A0816"/>
<path fill-rule="evenodd" clip-rule="evenodd" d="M6.51203 6.43496H7.0072C7.54905 6.43448 8.08568 6.54074 8.58647 6.74765C9.08726 6.95457 9.54238 7.2581 9.92587 7.64091C10.3093 8.02372 10.6137 8.47831 10.8215 8.97874C11.0293 9.47916 11.1365 10.0156 11.1369 10.5575C11.1365 11.0993 11.0293 11.6358 10.8215 12.1362C10.6137 12.6366 10.3093 13.0912 9.92587 13.474C9.54238 13.8568 9.08726 14.1603 8.58647 14.3673C8.08568 14.5742 7.54905 14.6804 7.0072 14.68H0.934791C0.813443 14.6838 0.692562 14.6632 0.579325 14.6194C0.466089 14.5756 0.362807 14.5095 0.275612 14.4251C0.188418 14.3406 0.119089 14.2394 0.0717431 14.1276C0.0243973 14.0158 0 13.8957 0 13.7743C0 13.6529 0.0243973 13.5327 0.0717431 13.4209C0.119089 13.3091 0.188418 13.2079 0.275612 13.1235C0.362807 13.039 0.466089 12.9729 0.579325 12.9291C0.692562 12.8853 0.813443 12.8647 0.934791 12.8686H7.00629C7.3101 12.8689 7.61101 12.8094 7.89182 12.6935C8.17263 12.5775 8.42784 12.4073 8.64288 12.1927C8.85792 11.9781 9.02857 11.7232 9.14508 11.4426C9.26159 11.1621 9.32168 10.8613 9.32192 10.5575C9.3218 10.2536 9.26179 9.95269 9.14534 9.672C9.02888 9.39131 8.85825 9.13632 8.6432 8.92161C8.42815 8.7069 8.1729 8.53667 7.89203 8.42065C7.61116 8.30463 7.31018 8.2451 7.00629 8.24546H4.15747C3.61555 8.24605 3.07881 8.13988 2.57792 7.93302C2.07703 7.72615 1.6218 7.42264 1.23822 7.03982C0.854642 6.657 0.550234 6.20237 0.342381 5.70189C0.134528 5.20141 0.027302 4.66488 0.0268267 4.12295C0.027302 3.58103 0.134528 3.0445 0.342381 2.54402C0.550234 2.04354 0.854642 1.58891 1.23822 1.20608C1.6218 0.823263 2.07703 0.519753 2.57792 0.312889C3.07881 0.106024 3.61555 -0.000142036 4.15747 0.000452651H10.2299C10.3512 -0.00338422 10.4721 0.0172032 10.5853 0.0609923C10.6986 0.104781 10.8019 0.170879 10.8891 0.25536C10.9763 0.339841 11.0456 0.440983 11.0929 0.552779C11.1403 0.664575 11.1647 0.784745 11.1647 0.906154C11.1647 1.02756 11.1403 1.14773 11.0929 1.25953C11.0456 1.37132 10.9763 1.47247 10.8891 1.55695C10.8019 1.64143 10.6986 1.70753 10.5853 1.75131C10.4721 1.7951 10.3512 1.81569 10.2299 1.81185H4.15747C3.85366 1.8115 3.55276 1.871 3.27195 1.98696C2.99114 2.10292 2.73592 2.27307 2.52089 2.48769C2.30585 2.70231 2.1352 2.95719 2.01869 3.23777C1.90218 3.51835 1.84209 3.81914 1.84185 4.12295C1.84197 4.42684 1.90197 4.72773 2.01843 5.00842C2.13489 5.2891 2.30552 5.54409 2.52057 5.7588C2.73561 5.97352 2.99087 6.14375 3.27174 6.25977C3.55261 6.37578 3.85359 6.43532 4.15747 6.43496H6.51203Z" fill="#0A0816"/>
</svg>
